<?xml version="1.0" standalone="no"?>
<!DOCTYPE svg PUBLIC "-//W3C//DTD SVG 20010904//EN"
 "http://www.w3.org/TR/2001/REC-SVG-20010904/DTD/svg10.dtd">
<svg version="1.0" xmlns="http://www.w3.org/2000/svg"
 width="289.000000pt" height="207.000000pt" viewBox="0 0 289.000000 207.000000"
 preserveAspectRatio="xMidYMid meet">
<metadata>
Created by potrace 1.10, written by Peter Selinger 2001-2011
</metadata>
<g transform="translate(0.000000,207.000000) scale(0.100000,-0.100000)"
fill="#000000" stroke="none">
<path d="M740 1800 l0 -100 105 0 105 0 0 100 0 100 -105 0 -105 0 0 -100z"/>
<path d="M2000 1800 l0 -100 105 0 105 0 0 100 0 100 -105 0 -105 0 0 -100z"/>
<path d="M950 1585 l0 -105 -105 0 -105 0 0 -105 0 -105 -105 0 -105 0 0 -105
0 -105 -105 0 -105 0 0 -310 0 -310 105 0 105 0 0 210 0 210 105 0 105 0 0
-210 0 -210 105 0 105 0 0 105 0 105 528 -2 527 -3 3 -102 3 -103 99 0 100 0
0 210 0 211 108 -3 107 -3 3 -207 2 -208 100 0 100 0 0 310 0 310 -105 0 -105
0 0 105 0 105 -105 0 -105 0 0 105 0 105 -105 0 -105 0 0 105 0 105 -105 0
-105 0 0 -105 0 -105 -317 2 -318 3 -3 103 -3 102 -99 0 -100 0 0 -105z m210
-415 l0 -110 -105 0 -105 0 0 110 0 110 105 0 105 0 0 -110z m840 0 l0 -110
-105 0 -105 0 0 110 0 110 105 0 105 0 0 -110z"/>
<path d="M950 330 l0 -100 210 0 210 0 0 100 0 100 -210 0 -210 0 0 -100z"/>
<path d="M1580 330 l0 -100 210 0 210 0 0 100 0 100 -210 0 -210 0 0 -100z"/>
</g>
</svg>
