<?xml version="1.0" encoding="utf-8"?>
<!-- Generator: Adobe Illustrator 27.5.0, SVG Export Plug-In . SVG Version: 6.00 Build 0)  -->
<svg version="1.1" id="Layer_1" xmlns="http://www.w3.org/2000/svg" xmlns:xlink="http://www.w3.org/1999/xlink" x="0px" y="0px"
	 viewBox="0 0 5000 5000" style="enable-background:new 0 0 5000 5000;" xml:space="preserve">
<g>
	<defs>
		<rect id="SVGID_1_" width="5000" height="5000"/>
	</defs>
	<use xlink:href="#SVGID_1_"  style="overflow:visible;fill-rule:evenodd;clip-rule:evenodd;fill:#E6E7E8;"/>
	<clipPath id="SVGID_00000177478711722603863820000002554851805597944510_">
		<use xlink:href="#SVGID_1_"  style="overflow:visible;"/>
	</clipPath>
	
		<polygon style="clip-path:url(#SVGID_00000177478711722603863820000002554851805597944510_);fill-rule:evenodd;clip-rule:evenodd;" points="
		-116.564,963.351 43.994,963.351 43.994,1016.854 151.016,1016.854 151.016,1070.373 204.552,1070.373 204.552,963.351 
		151.016,963.351 151.016,856.295 97.514,856.295 97.514,802.775 43.994,802.775 43.994,695.736 -9.525,695.736 -9.525,642.217 
		-63.045,642.217 -63.045,535.178 -116.564,535.178 -116.564,481.658 -170.084,481.658 -170.084,374.619 -223.604,374.619 
		-223.604,321.117 -277.123,321.117 -277.123,428.139 -223.604,428.139 -223.604,481.658 -170.084,481.658 -170.084,909.831 
		-116.564,909.831 	"/>
	
		<path style="clip-path:url(#SVGID_00000177478711722603863820000002554851805597944510_);fill-rule:evenodd;clip-rule:evenodd;" d="
		M1687.682,428.139h53.52v53.52h53.52v428.173h160.559V481.658h53.502v-53.52h53.537v-53.52h107.039v-909.814h-53.52v-107.056
		h-53.52v-107.022h-374.637v107.022h-53.52v107.056h-53.52v909.814h107.039V428.139z M1794.721-428.173v53.52h-160.559v-107.039
		h53.52v-107.039h53.52v-107.039h267.581v107.039h53.537v107.039h53.52v107.039h-160.559v-53.52h-53.52v-53.52h-53.52v53.52
		H1794.721z M1955.279-214.096h53.502v53.537h53.537V-0.018h-53.537V53.52h-53.502v53.52h-160.559V53.52h-53.52V-0.018h-53.52
		v-160.541h53.52v-53.537h53.52v-53.52h160.559V-214.096z"/>
	
		<polygon style="clip-path:url(#SVGID_00000177478711722603863820000002554851805597944510_);fill-rule:evenodd;clip-rule:evenodd;" points="
		1473.604,374.619 1420.084,374.619 1420.084,481.658 1366.564,481.658 1366.564,535.178 1313.045,535.178 1313.045,642.217 
		1259.526,642.217 1259.526,695.736 1206.006,695.736 1206.006,802.775 1152.487,802.775 1152.487,856.295 1098.984,856.295 
		1098.984,963.351 1045.448,963.351 1045.448,1070.373 1098.984,1070.373 1098.984,1016.854 1206.006,1016.854 1206.006,963.351 
		1366.564,963.351 1366.564,909.831 1420.084,909.831 1420.084,481.658 1473.604,481.658 1473.604,428.139 1527.123,428.139 
		1527.123,321.117 1473.604,321.117 	"/>
	
		<polygon style="clip-path:url(#SVGID_00000177478711722603863820000002554851805597944510_);fill-rule:evenodd;clip-rule:evenodd;" points="
		2383.436,963.351 2543.994,963.351 2543.994,1016.854 2651.033,1016.854 2651.033,1070.373 2704.535,1070.373 2704.535,963.351 
		2651.033,963.351 2651.033,856.295 2597.53,856.295 2597.53,802.775 2543.994,802.775 2543.994,695.736 2490.475,695.736 
		2490.475,642.217 2436.955,642.217 2436.955,535.178 2383.436,535.178 2383.436,481.658 2329.916,481.658 2329.916,374.619 
		2276.396,374.619 2276.396,321.117 2222.877,321.117 2222.877,428.139 2276.396,428.139 2276.396,481.658 2329.916,481.658 
		2329.916,909.831 2383.436,909.831 	"/>
	
		<polygon style="clip-path:url(#SVGID_00000177478711722603863820000002554851805597944510_);fill-rule:evenodd;clip-rule:evenodd;" points="
		1687.682,428.139 1527.123,428.139 1527.123,481.658 1473.604,481.658 1473.604,749.273 1741.201,749.273 1741.201,481.658 
		1687.682,481.658 	"/>
	
		<polygon style="clip-path:url(#SVGID_00000177478711722603863820000002554851805597944510_);fill-rule:evenodd;clip-rule:evenodd;" points="
		2222.877,428.139 2062.318,428.139 2062.318,481.658 2008.782,481.658 2008.782,749.273 2276.396,749.273 2276.396,481.658 
		2222.877,481.658 	"/>
	
		<polygon style="clip-path:url(#SVGID_00000177478711722603863820000002554851805597944510_);fill-rule:evenodd;clip-rule:evenodd;" points="
		1955.279,-214.096 1794.721,-214.096 1794.721,-160.559 1741.201,-160.559 1741.201,-0.018 1794.721,-0.018 1794.721,53.52 
		1955.279,53.52 1955.279,-0.018 2008.782,-0.018 2008.782,-160.559 1955.279,-160.559 	"/>
	
		<rect x="1473.604" y="802.775" style="clip-path:url(#SVGID_00000177478711722603863820000002554851805597944510_);fill-rule:evenodd;clip-rule:evenodd;" width="267.598" height="160.576"/>
	
		<rect x="2008.782" y="802.775" style="clip-path:url(#SVGID_00000177478711722603863820000002554851805597944510_);fill-rule:evenodd;clip-rule:evenodd;" width="267.615" height="160.576"/>
	
		<polygon style="clip-path:url(#SVGID_00000177478711722603863820000002554851805597944510_);fill-rule:evenodd;clip-rule:evenodd;" points="
		1527.123,1070.373 1473.604,1070.373 1473.604,1123.893 1741.201,1123.893 1741.201,1070.373 1687.682,1070.373 1687.682,1016.854 
		1527.123,1016.854 	"/>
	
		<polygon style="clip-path:url(#SVGID_00000177478711722603863820000002554851805597944510_);fill-rule:evenodd;clip-rule:evenodd;" points="
		2062.318,1070.373 2008.782,1070.373 2008.782,1123.893 2276.396,1123.893 2276.396,1070.373 2222.877,1070.373 2222.877,1016.854 
		2062.318,1016.854 	"/>
	
		<path style="clip-path:url(#SVGID_00000177478711722603863820000002554851805597944510_);fill-rule:evenodd;clip-rule:evenodd;" d="
		M4187.682,428.139h53.537v53.52h53.502v428.173h160.541V481.658h53.537v-53.52h53.502v-53.52h107.039v-909.814h-53.502v-107.056
		h-53.537v-107.022h-374.619v107.022h-53.536v107.056h-53.503v909.814h107.039V428.139z M4294.721-428.173v53.52h-160.575v-107.039
		h53.536v-107.039h53.537v-107.039h267.58v107.039h53.502v107.039h53.537v107.039h-160.576v-53.52h-53.502v-53.52h-53.537v53.52
		H4294.721z M4455.262-214.096h53.537v53.537h53.502V-0.018h-53.502V53.52h-53.537v53.52h-160.541V53.52h-53.502V-0.018h-53.537
		v-160.541h53.537v-53.537h53.502v-53.52h160.541V-214.096z"/>
	
		<polygon style="clip-path:url(#SVGID_00000177478711722603863820000002554851805597944510_);fill-rule:evenodd;clip-rule:evenodd;" points="
		3973.604,374.619 3920.067,374.619 3920.067,481.658 3866.564,481.658 3866.564,535.178 3813.063,535.178 3813.063,642.217 
		3759.525,642.217 3759.525,695.736 3706.023,695.736 3706.023,802.775 3652.486,802.775 3652.486,856.295 3598.984,856.295 
		3598.984,963.351 3545.447,963.351 3545.447,1070.373 3598.984,1070.373 3598.984,1016.854 3706.023,1016.854 3706.023,963.351 
		3866.564,963.351 3866.564,909.831 3920.067,909.831 3920.067,481.658 3973.604,481.658 3973.604,428.139 4027.141,428.139 
		4027.141,321.117 3973.604,321.117 	"/>
	
		<polygon style="clip-path:url(#SVGID_00000177478711722603863820000002554851805597944510_);fill-rule:evenodd;clip-rule:evenodd;" points="
		4883.418,963.351 5043.994,963.351 5043.994,1016.854 5151.033,1016.854 5151.033,1070.373 5204.535,1070.373 5204.535,963.351 
		5151.033,963.351 5151.033,856.295 5097.531,856.295 5097.531,802.775 5043.994,802.775 5043.994,695.736 4990.457,695.736 
		4990.457,642.217 4936.955,642.217 4936.955,535.178 4883.418,535.178 4883.418,481.658 4829.916,481.658 4829.916,374.619 
		4776.379,374.619 4776.379,321.117 4722.877,321.117 4722.877,428.139 4776.379,428.139 4776.379,481.658 4829.916,481.658 
		4829.916,909.831 4883.418,909.831 	"/>
	
		<polygon style="clip-path:url(#SVGID_00000177478711722603863820000002554851805597944510_);fill-rule:evenodd;clip-rule:evenodd;" points="
		4187.682,428.139 4027.141,428.139 4027.141,481.658 3973.604,481.658 3973.604,749.273 4241.219,749.273 4241.219,481.658 
		4187.682,481.658 	"/>
	
		<polygon style="clip-path:url(#SVGID_00000177478711722603863820000002554851805597944510_);fill-rule:evenodd;clip-rule:evenodd;" points="
		4722.877,428.139 4562.301,428.139 4562.301,481.658 4508.799,481.658 4508.799,749.273 4776.379,749.273 4776.379,481.658 
		4722.877,481.658 	"/>
	
		<polygon style="clip-path:url(#SVGID_00000177478711722603863820000002554851805597944510_);fill-rule:evenodd;clip-rule:evenodd;" points="
		4455.262,-214.096 4294.721,-214.096 4294.721,-160.559 4241.219,-160.559 4241.219,-0.018 4294.721,-0.018 4294.721,53.52 
		4455.262,53.52 4455.262,-0.018 4508.799,-0.018 4508.799,-160.559 4455.262,-160.559 	"/>
	
		<rect x="3973.604" y="802.775" style="clip-path:url(#SVGID_00000177478711722603863820000002554851805597944510_);fill-rule:evenodd;clip-rule:evenodd;" width="267.615" height="160.576"/>
	
		<rect x="4508.799" y="802.775" style="clip-path:url(#SVGID_00000177478711722603863820000002554851805597944510_);fill-rule:evenodd;clip-rule:evenodd;" width="267.58" height="160.576"/>
	
		<polygon style="clip-path:url(#SVGID_00000177478711722603863820000002554851805597944510_);fill-rule:evenodd;clip-rule:evenodd;" points="
		4027.141,1070.373 3973.604,1070.373 3973.604,1123.893 4241.219,1123.893 4241.219,1070.373 4187.682,1070.373 4187.682,1016.854 
		4027.141,1016.854 	"/>
	
		<polygon style="clip-path:url(#SVGID_00000177478711722603863820000002554851805597944510_);fill-rule:evenodd;clip-rule:evenodd;" points="
		4562.301,1070.373 4508.799,1070.373 4508.799,1123.893 4776.379,1123.893 4776.379,1070.373 4722.877,1070.373 4722.877,1016.854 
		4562.301,1016.854 	"/>
	
		<path style="clip-path:url(#SVGID_00000177478711722603863820000002554851805597944510_);fill-rule:evenodd;clip-rule:evenodd;" d="
		M437.682,2928.156h53.537v53.502h53.502v428.156h160.559v-428.156h53.502v-53.502h53.537v-53.537h107.039v-909.814h-53.52v-107.056
		h-53.519v-107.022H437.682v107.022h-53.52v107.056h-53.52v909.814h107.039V2928.156z M544.721,2071.827v53.52H384.162v-107.039
		h53.52v-107.022h53.537v-107.056h267.563v107.056h53.537v107.022h53.519v107.039H705.279v-53.52H651.76v-53.52h-53.52v53.52
		H544.721z M705.279,2285.922h53.502v53.52h53.537v160.542h-53.537v53.519h-53.502v53.537H544.721v-53.537h-53.502v-53.519h-53.537
		v-160.542h53.537v-53.52h53.502v-53.537h160.559V2285.922z"/>
	
		<polygon style="clip-path:url(#SVGID_00000177478711722603863820000002554851805597944510_);fill-rule:evenodd;clip-rule:evenodd;" points="
		223.604,2874.619 170.084,2874.619 170.084,2981.658 116.564,2981.658 116.564,3035.195 63.045,3035.195 63.045,3142.234 
		9.525,3142.234 9.525,3195.736 -43.994,3195.736 -43.994,3302.775 -97.514,3302.775 -97.514,3356.277 -151.016,3356.277 
		-151.016,3463.352 -204.552,3463.352 -204.552,3570.39 -151.016,3570.39 -151.016,3516.854 -43.994,3516.854 -43.994,3463.352 
		116.564,3463.352 116.564,3409.814 170.084,3409.814 170.084,2981.658 223.604,2981.658 223.604,2928.156 277.123,2928.156 
		277.123,2821.117 223.604,2821.117 	"/>
	
		<polygon style="clip-path:url(#SVGID_00000177478711722603863820000002554851805597944510_);fill-rule:evenodd;clip-rule:evenodd;" points="
		1133.436,3463.352 1293.994,3463.352 1293.994,3516.854 1401.016,3516.854 1401.016,3570.39 1454.552,3570.39 1454.552,3463.352 
		1401.016,3463.352 1401.016,3356.277 1347.514,3356.277 1347.514,3302.775 1293.994,3302.775 1293.994,3195.736 1240.475,3195.736 
		1240.475,3142.234 1186.955,3142.234 1186.955,3035.195 1133.436,3035.195 1133.436,2981.658 1079.916,2981.658 1079.916,2874.619 
		1026.396,2874.619 1026.396,2821.117 972.877,2821.117 972.877,2928.156 1026.396,2928.156 1026.396,2981.658 1079.916,2981.658 
		1079.916,3409.814 1133.436,3409.814 	"/>
	
		<polygon style="clip-path:url(#SVGID_00000177478711722603863820000002554851805597944510_);fill-rule:evenodd;clip-rule:evenodd;" points="
		437.682,2928.156 277.123,2928.156 277.123,2981.658 223.604,2981.658 223.604,3249.273 491.219,3249.273 491.219,2981.658 
		437.682,2981.658 	"/>
	
		<polygon style="clip-path:url(#SVGID_00000177478711722603863820000002554851805597944510_);fill-rule:evenodd;clip-rule:evenodd;" points="
		972.877,2928.156 812.318,2928.156 812.318,2981.658 758.782,2981.658 758.782,3249.273 1026.396,3249.273 1026.396,2981.658 
		972.877,2981.658 	"/>
	
		<polygon style="clip-path:url(#SVGID_00000177478711722603863820000002554851805597944510_);fill-rule:evenodd;clip-rule:evenodd;" points="
		705.279,2285.922 544.721,2285.922 544.721,2339.441 491.219,2339.441 491.219,2499.983 544.721,2499.983 544.721,2553.502 
		705.279,2553.502 705.279,2499.983 758.782,2499.983 758.782,2339.441 705.279,2339.441 	"/>
	
		<rect x="223.604" y="3302.775" style="clip-path:url(#SVGID_00000177478711722603863820000002554851805597944510_);fill-rule:evenodd;clip-rule:evenodd;" width="267.615" height="160.576"/>
	
		<rect x="758.782" y="3302.775" style="clip-path:url(#SVGID_00000177478711722603863820000002554851805597944510_);fill-rule:evenodd;clip-rule:evenodd;" width="267.615" height="160.576"/>
	
		<polygon style="clip-path:url(#SVGID_00000177478711722603863820000002554851805597944510_);fill-rule:evenodd;clip-rule:evenodd;" points="
		491.219,1911.285 491.219,2018.307 437.682,2018.307 437.682,2071.827 544.721,2071.827 544.721,1964.805 705.279,1964.805 
		705.279,2071.827 812.318,2071.827 812.318,2018.307 758.782,2018.307 758.782,1911.285 705.279,1911.285 705.279,1857.749 
		544.721,1857.749 544.721,1911.285 	"/>
	
		<polygon style="clip-path:url(#SVGID_00000177478711722603863820000002554851805597944510_);fill-rule:evenodd;clip-rule:evenodd;" points="
		277.123,3570.39 223.604,3570.39 223.604,3623.893 491.219,3623.893 491.219,3570.39 437.682,3570.39 437.682,3516.854 
		277.123,3516.854 	"/>
	
		<polygon style="clip-path:url(#SVGID_00000177478711722603863820000002554851805597944510_);fill-rule:evenodd;clip-rule:evenodd;" points="
		812.318,3570.39 758.782,3570.39 758.782,3623.893 1026.396,3623.893 1026.396,3570.39 972.877,3570.39 972.877,3516.854 
		812.318,3516.854 	"/>
	
		<polygon style="clip-path:url(#SVGID_00000177478711722603863820000002554851805597944510_);fill-rule:evenodd;clip-rule:evenodd;" points="
		598.24,1590.151 544.721,1590.151 544.721,1697.208 705.279,1697.208 705.279,1590.151 651.76,1590.151 651.76,1536.649 
		598.24,1536.649 	"/>
	
		<path style="clip-path:url(#SVGID_00000177478711722603863820000002554851805597944510_);fill-rule:evenodd;clip-rule:evenodd;" d="
		M2937.665,2928.156h53.536v53.502h53.502v428.156h160.576v-428.156h53.502v-53.502h53.537v-53.537h107.039v-909.814h-53.537
		v-107.056h-53.502v-107.022h-374.653v107.022h-53.503v107.056h-53.536v909.814h107.039V2928.156z M3044.703,2071.827v53.52
		h-160.541v-107.039h53.503v-107.022h53.536v-107.056h267.58v107.056h53.537v107.022h53.502v107.039h-160.541v-53.52h-53.537v-53.52
		h-53.502v53.52H3044.703z M3205.279,2285.922h53.502v53.52h53.537v160.542h-53.537v53.519h-53.502v53.537h-160.576v-53.537h-53.502
		v-53.519h-53.536v-160.542h53.536v-53.52h53.502v-53.537h160.576V2285.922z"/>
	
		<polygon style="clip-path:url(#SVGID_00000177478711722603863820000002554851805597944510_);fill-rule:evenodd;clip-rule:evenodd;" points="
		2723.621,2874.619 2670.084,2874.619 2670.084,2981.658 2616.548,2981.658 2616.548,3035.195 2563.045,3035.195 2563.045,3142.234 
		2509.525,3142.234 2509.525,3195.736 2456.006,3195.736 2456.006,3302.775 2402.47,3302.775 2402.47,3356.277 2348.984,3356.277 
		2348.984,3463.352 2295.448,3463.352 2295.448,3570.39 2348.984,3570.39 2348.984,3516.854 2456.006,3516.854 2456.006,3463.352 
		2616.548,3463.352 2616.548,3409.814 2670.084,3409.814 2670.084,2981.658 2723.621,2981.658 2723.621,2928.156 2777.123,2928.156 
		2777.123,2821.117 2723.621,2821.117 	"/>
	
		<polygon style="clip-path:url(#SVGID_00000177478711722603863820000002554851805597944510_);fill-rule:evenodd;clip-rule:evenodd;" points="
		3633.436,3463.352 3793.977,3463.352 3793.977,3516.854 3901.016,3516.854 3901.016,3570.39 3954.553,3570.39 3954.553,3463.352 
		3901.016,3463.352 3901.016,3356.277 3847.514,3356.277 3847.514,3302.775 3793.977,3302.775 3793.977,3195.736 3740.475,3195.736 
		3740.475,3142.234 3686.938,3142.234 3686.938,3035.195 3633.436,3035.195 3633.436,2981.658 3579.898,2981.658 3579.898,2874.619 
		3526.396,2874.619 3526.396,2821.117 3472.859,2821.117 3472.859,2928.156 3526.396,2928.156 3526.396,2981.658 3579.898,2981.658 
		3579.898,3409.814 3633.436,3409.814 	"/>
	
		<polygon style="clip-path:url(#SVGID_00000177478711722603863820000002554851805597944510_);fill-rule:evenodd;clip-rule:evenodd;" points="
		2937.665,2928.156 2777.123,2928.156 2777.123,2981.658 2723.621,2981.658 2723.621,3249.273 2991.201,3249.273 2991.201,2981.658 
		2937.665,2981.658 	"/>
	
		<polygon style="clip-path:url(#SVGID_00000177478711722603863820000002554851805597944510_);fill-rule:evenodd;clip-rule:evenodd;" points="
		3472.859,2928.156 3312.318,2928.156 3312.318,2981.658 3258.781,2981.658 3258.781,3249.273 3526.396,3249.273 3526.396,2981.658 
		3472.859,2981.658 	"/>
	
		<polygon style="clip-path:url(#SVGID_00000177478711722603863820000002554851805597944510_);fill-rule:evenodd;clip-rule:evenodd;" points="
		3205.279,2285.922 3044.703,2285.922 3044.703,2339.441 2991.201,2339.441 2991.201,2499.983 3044.703,2499.983 3044.703,2553.502 
		3205.279,2553.502 3205.279,2499.983 3258.781,2499.983 3258.781,2339.441 3205.279,2339.441 	"/>
	
		<rect x="2723.621" y="3302.775" style="clip-path:url(#SVGID_00000177478711722603863820000002554851805597944510_);fill-rule:evenodd;clip-rule:evenodd;" width="267.58" height="160.576"/>
	
		<rect x="3258.781" y="3302.775" style="clip-path:url(#SVGID_00000177478711722603863820000002554851805597944510_);fill-rule:evenodd;clip-rule:evenodd;" width="267.615" height="160.576"/>
	
		<polygon style="clip-path:url(#SVGID_00000177478711722603863820000002554851805597944510_);fill-rule:evenodd;clip-rule:evenodd;" points="
		2991.201,1911.285 2991.201,2018.307 2937.665,2018.307 2937.665,2071.827 3044.703,2071.827 3044.703,1964.805 3205.279,1964.805 
		3205.279,2071.827 3312.318,2071.827 3312.318,2018.307 3258.781,2018.307 3258.781,1911.285 3205.279,1911.285 3205.279,1857.749 
		3044.703,1857.749 3044.703,1911.285 	"/>
	
		<polygon style="clip-path:url(#SVGID_00000177478711722603863820000002554851805597944510_);fill-rule:evenodd;clip-rule:evenodd;" points="
		2777.123,3570.39 2723.621,3570.39 2723.621,3623.893 2991.201,3623.893 2991.201,3570.39 2937.665,3570.39 2937.665,3516.854 
		2777.123,3516.854 	"/>
	
		<polygon style="clip-path:url(#SVGID_00000177478711722603863820000002554851805597944510_);fill-rule:evenodd;clip-rule:evenodd;" points="
		3312.318,3570.39 3258.781,3570.39 3258.781,3623.893 3526.396,3623.893 3526.396,3570.39 3472.859,3570.39 3472.859,3516.854 
		3312.318,3516.854 	"/>
	
		<polygon style="clip-path:url(#SVGID_00000177478711722603863820000002554851805597944510_);fill-rule:evenodd;clip-rule:evenodd;" points="
		3098.24,1590.151 3044.703,1590.151 3044.703,1697.208 3205.279,1697.208 3205.279,1590.151 3151.742,1590.151 3151.742,1536.649 
		3098.24,1536.649 	"/>
	
		<polygon style="clip-path:url(#SVGID_00000177478711722603863820000002554851805597944510_);fill-rule:evenodd;clip-rule:evenodd;" points="
		5223.621,2874.619 5170.084,2874.619 5170.084,2981.658 5116.548,2981.658 5116.548,3035.195 5063.045,3035.195 5063.045,3142.234 
		5009.509,3142.234 5009.509,3195.736 4956.006,3195.736 4956.006,3302.775 4902.47,3302.775 4902.47,3356.277 4848.967,3356.277 
		4848.967,3463.352 4795.431,3463.352 4795.431,3570.39 4848.967,3570.39 4848.967,3516.854 4956.006,3516.854 4956.006,3463.352 
		5116.548,3463.352 5116.548,3409.814 5170.084,3409.814 5170.084,2981.658 5223.621,2981.658 5223.621,2928.156 5277.123,2928.156 
		5277.123,2821.117 5223.621,2821.117 	"/>
	
		<path style="clip-path:url(#SVGID_00000177478711722603863820000002554851805597944510_);fill-rule:evenodd;clip-rule:evenodd;" d="
		M1687.682,5428.156h53.52v53.502h53.52v428.156h160.559v-428.156h53.502v-53.502h53.537v-53.537h107.039v-909.814h-53.52v-107.039
		h-53.52v-107.039h-374.637v107.039h-53.52v107.039h-53.52v909.814h107.039V5428.156z M1794.721,4571.844v53.502h-160.559v-107.038
		h53.52v-107.039h53.52v-107.039h267.581v107.039h53.537v107.039h53.52v107.038h-160.559v-53.502h-53.52v-53.536h-53.52v53.536
		H1794.721z M1955.279,4785.922h53.502v53.502h53.537V5000h-53.537v53.502h-53.502v53.537h-160.559v-53.537h-53.52V5000h-53.52
		v-160.576h53.52v-53.502h53.52v-53.537h160.559V4785.922z"/>
	
		<polygon style="clip-path:url(#SVGID_00000177478711722603863820000002554851805597944510_);fill-rule:evenodd;clip-rule:evenodd;" points="
		1955.279,4785.922 1794.721,4785.922 1794.721,4839.424 1741.201,4839.424 1741.201,5000 1794.721,5000 1794.721,5053.502 
		1955.279,5053.502 1955.279,5000 2008.782,5000 2008.782,4839.424 1955.279,4839.424 	"/>
	
		<polygon style="clip-path:url(#SVGID_00000177478711722603863820000002554851805597944510_);fill-rule:evenodd;clip-rule:evenodd;" points="
		1741.201,4411.269 1741.201,4518.308 1687.682,4518.308 1687.682,4571.844 1794.721,4571.844 1794.721,4464.805 1955.279,4464.805 
		1955.279,4571.844 2062.318,4571.844 2062.318,4518.308 2008.782,4518.308 2008.782,4411.269 1955.279,4411.269 1955.279,4357.766 
		1794.721,4357.766 1794.721,4411.269 	"/>
	
		<polygon style="clip-path:url(#SVGID_00000177478711722603863820000002554851805597944510_);fill-rule:evenodd;clip-rule:evenodd;" points="
		1848.24,4090.151 1794.721,4090.151 1794.721,4197.19 1955.279,4197.19 1955.279,4090.151 1901.76,4090.151 1901.76,4036.648 
		1848.24,4036.648 	"/>
	
		<path style="clip-path:url(#SVGID_00000177478711722603863820000002554851805597944510_);fill-rule:evenodd;clip-rule:evenodd;" d="
		M4187.682,5428.156h53.537v53.502h53.502v428.156h160.541v-428.156h53.537v-53.502h53.502v-53.537h107.039v-909.814h-53.502
		v-107.039h-53.537v-107.039h-374.619v107.039h-53.536v107.039h-53.503v909.814h107.039V5428.156z M4294.721,4571.844v53.502
		h-160.575v-107.038h53.536v-107.039h53.537v-107.039h267.58v107.039h53.502v107.039h53.537v107.038h-160.576v-53.502h-53.502
		v-53.536h-53.537v53.536H4294.721z M4455.262,4785.922h53.537v53.502h53.502V5000h-53.502v53.502h-53.537v53.537h-160.541v-53.537
		h-53.502V5000h-53.537v-160.576h53.537v-53.502h53.502v-53.537h160.541V4785.922z"/>
	
		<polygon style="clip-path:url(#SVGID_00000177478711722603863820000002554851805597944510_);fill-rule:evenodd;clip-rule:evenodd;" points="
		4455.262,4785.922 4294.721,4785.922 4294.721,4839.424 4241.219,4839.424 4241.219,5000 4294.721,5000 4294.721,5053.502 
		4455.262,5053.502 4455.262,5000 4508.799,5000 4508.799,4839.424 4455.262,4839.424 	"/>
	
		<polygon style="clip-path:url(#SVGID_00000177478711722603863820000002554851805597944510_);fill-rule:evenodd;clip-rule:evenodd;" points="
		4241.219,4411.269 4241.219,4518.308 4187.682,4518.308 4187.682,4571.844 4294.721,4571.844 4294.721,4464.805 4455.262,4464.805 
		4455.262,4571.844 4562.301,4571.844 4562.301,4518.308 4508.799,4518.308 4508.799,4411.269 4455.262,4411.269 4455.262,4357.766 
		4294.721,4357.766 4294.721,4411.269 	"/>
	
		<polygon style="clip-path:url(#SVGID_00000177478711722603863820000002554851805597944510_);fill-rule:evenodd;clip-rule:evenodd;" points="
		4348.223,4090.151 4294.721,4090.151 4294.721,4197.19 4455.262,4197.19 4455.262,4090.151 4401.76,4090.151 4401.76,4036.648 
		4348.223,4036.648 	"/>
</g>
</svg>
