
<svg xmlns="http://www.w3.org/2000/svg" viewBox="0 0 79.14 103.39" id="data">
  <g>
    <g>
      <path fill="#353434" fill-rule="evenodd" d="m55.91 32.87 13.28.05a13.22 13.22 0 0 1-4 9.41 12.68 12.68 0 0 1-1.93 1.58l-7.39-11zm-29.82-.64h4.29a.4.4 0 0 1 .41.4v8.14a.41.41 0 0 1-.41.4h-4.29a.41.41 0 0 1-.41-.4v-8.14a.4.4 0 0 1 .41-.4zm-14.68-4.47h4.29a.4.4 0 0 1 .41.39v12.63a.4.4 0 0 1-.41.39h-4.29a.4.4 0 0 1-.41-.39V28.15a.4.4 0 0 1 .41-.39zm7.02-3.19h4.29a.4.4 0 0 1 .41.4v15.8a.41.41 0 0 1-.41.4h-4.29a.4.4 0 0 1-.41-.4V25a.39.39 0 0 1 .41-.4zm-6.95 65.74a1.6 1.6 0 0 1-1.55-2 1.65 1.65 0 0 1 1.63-1.22h56.3a1.59 1.59 0 0 1 1.54 2 1.66 1.66 0 0 1-1.64 1.21zm.32-11.49a1.58 1.58 0 0 1-1.57-1.73 1.66 1.66 0 0 1 1.69-1.46h55.73a1.59 1.59 0 0 1 1.57 1.74 1.66 1.66 0 0 1-1.69 1.45zm-.49-12.12a1.6 1.6 0 0 1-1.54-2 1.64 1.64 0 0 1 1.63-1.2h24a1.6 1.6 0 0 1 1.54 2 1.66 1.66 0 0 1-1.64 1.2zm30.57 0a1.6 1.6 0 0 1-1.54-2A1.64 1.64 0 0 1 42 63.5h25.9a1.59 1.59 0 0 1 1.54 2 1.66 1.66 0 0 1-1.64 1.22zM11.32 56.48a1.59 1.59 0 0 1-1.58-1.73 1.67 1.67 0 0 1 1.69-1.46h19.7A1.59 1.59 0 0 1 32.71 55 1.66 1.66 0 0 1 31 56.48z"></path>
      <path fill="#06c" fill-rule="evenodd" d="M11.26 16.27a1.6 1.6 0 0 1 0-3.19H23.1a1.6 1.6 0 0 1 0 3.19zm43.62.46.67 13.18L68.72 29a13.71 13.71 0 0 0-13.8-12.24zM53 32.48l7.12 12.33a14.24 14.24 0 1 1-9.19-26.42L53 32.48z"></path>
      <path fill="#353434" d="M71.35 103.39H7.79A7.79 7.79 0 0 1 0 95.61V7.79A7.79 7.79 0 0 1 7.79 0h63.56a7.79 7.79 0 0 1 7.79 7.79v87.82a7.79 7.79 0 0 1-7.79 7.78ZM7.79 3.83a4 4 0 0 0-4 4v87.78a4 4 0 0 0 4 4h63.56a4 4 0 0 0 4-4V7.79a4 4 0 0 0-4-4Z"></path>
    </g>
  </g>
</svg>
